<svg version="1.1" id="Layer_1" xmlns="http://www.w3.org/2000/svg" xmlns:xlink="http://www.w3.org/1999/xlink" x="0px" y="0px"
	 width="100%" viewBox="0 0 338 144" enable-background="new 0 0 338 144" xml:space="preserve">
<path fill="#DF282A" opacity="1.000000" stroke="none" 
	d="
M214.000000,145.000000 
	C142.666672,145.000000 71.833351,145.000000 1.000019,145.000000 
	C1.000013,97.000015 1.000013,49.000027 1.000006,1.000032 
	C113.666634,1.000021 226.333267,1.000021 338.999939,1.000011 
	C338.999939,48.999966 338.999939,96.999931 338.999969,144.999939 
	C297.500000,145.000000 256.000000,145.000000 214.000000,145.000000 
M187.942947,123.307526 
	C186.959732,122.736877 185.976532,122.166229 184.993317,121.595581 
	C184.699829,123.935760 184.406357,126.275948 184.112869,128.616135 
	C184.471481,128.641617 184.830078,128.667114 185.188675,128.692596 
	C185.767029,127.849022 186.345383,127.005447 186.946579,126.912399 
	C187.348007,127.717468 187.749435,128.522552 188.389236,129.805695 
	C189.334503,128.112991 189.989960,126.939232 190.656097,125.746368 
	C191.064545,126.962418 191.423004,128.029663 191.781479,129.096909 
	C192.066147,129.044113 192.350830,128.991318 192.635513,128.938507 
	C192.635513,125.712723 192.635513,122.486931 192.635513,119.261139 
	C192.235733,119.061829 191.835938,118.862511 191.436157,118.663200 
	C190.288376,120.442970 189.140579,122.222733 187.942947,123.307526 
M31.869236,80.470787 
	C35.160404,79.321815 36.146702,81.124306 36.764938,83.967422 
	C38.838840,93.504799 41.074726,103.006958 43.295639,112.728462 
	C47.154594,112.206421 50.507092,111.752899 54.128006,111.263069 
	C51.411446,100.879295 48.796867,91.108551 46.345818,81.296959 
	C45.936832,79.659790 45.478226,77.126656 46.330631,76.224281 
	C54.212822,67.880035 53.149036,57.864235 51.714077,47.954575 
	C50.696308,40.926003 46.788483,35.350094 39.638046,33.452000 
	C33.319710,31.774786 26.739445,31.084301 20.077122,29.923712 
	C20.077122,58.987057 20.077122,87.379967 20.077122,115.793724 
	C30.301550,115.048347 30.301552,115.048347 30.301579,105.514603 
	C30.301588,102.350555 30.208605,99.183144 30.322796,96.023216 
	C30.506336,90.944267 30.826778,85.870262 31.869236,80.470787 
M276.803558,108.218452 
	C280.043762,109.353989 283.283997,110.489525 286.955566,111.776230 
	C286.955566,85.403214 286.955566,60.348618 286.955566,34.988186 
	C283.364532,35.479618 280.150452,35.919472 276.620514,36.402546 
	C276.620514,46.435692 276.620514,56.044209 276.620514,65.855820 
	C272.703400,65.855820 269.176514,65.855820 265.141907,65.855820 
	C265.141907,56.219540 265.141907,46.964745 265.141907,37.446117 
	C261.508392,37.743454 258.410126,37.996994 255.119995,38.266232 
	C255.119995,61.605801 255.119995,84.633308 255.119995,107.804581 
	C258.535034,108.094498 261.618591,108.356277 265.436676,108.680405 
	C265.436676,97.992424 265.436676,87.631943 265.436676,77.485382 
	C269.573639,77.485382 272.989685,77.485382 276.783051,77.485382 
	C276.783051,87.673004 276.783051,97.471779 276.803558,108.218452 
M100.701752,44.632210 
	C100.701752,65.346970 100.701752,86.061722 100.701752,106.978737 
	C107.153557,106.562866 112.814240,106.433403 118.414185,105.781937 
	C126.845688,104.801064 132.494598,99.573883 132.867554,91.185158 
	C133.406250,79.068840 133.392822,66.891548 132.838013,54.775860 
	C132.468277,46.701923 127.365891,41.715118 119.264153,40.498524 
	C113.388374,39.616196 107.391174,39.542545 101.046059,39.078922 
	C100.917259,40.796761 100.809601,42.232586 100.701752,44.632210 
M229.743042,49.666775 
	C231.262360,53.313427 232.781662,56.960083 234.421783,60.896713 
	C236.764359,60.896713 239.843216,60.896713 243.132187,60.896713 
	C243.132187,58.267128 243.308136,55.957569 243.102295,53.682560 
	C242.112671,42.745731 234.094452,37.129112 223.524048,39.873615 
	C216.357101,41.734444 211.966370,47.256378 211.839996,55.301239 
	C211.656998,66.949753 211.734283,78.603333 211.794022,90.254272 
	C211.826797,96.645012 213.917847,102.098930 219.967804,105.137352 
	C226.127487,108.230881 231.795593,107.286964 235.736557,103.028534 
	C238.382980,104.748070 240.642639,106.216309 243.648865,108.169632 
	C243.648865,95.360161 243.648865,84.121346 243.648865,73.019287 
	C237.755829,73.019287 232.193771,73.019287 226.649750,73.019287 
	C226.649750,76.008980 226.649750,78.571518 226.649750,81.311333 
	C228.904068,81.544693 230.824280,81.743469 232.954712,81.964012 
	C232.954712,85.347237 233.561386,88.650887 232.749512,91.558441 
	C232.171814,93.627365 229.960571,96.167130 227.986160,96.711449 
	C224.656967,97.629272 222.647446,94.931511 222.612411,91.749107 
	C222.475128,79.277374 222.468460,66.800728 222.686279,54.330677 
	C222.751328,50.606956 224.976257,48.528603 229.743042,49.666775 
M70.239204,109.731850 
	C77.468903,108.996422 84.698601,108.260994 91.780823,107.540565 
	C91.780823,103.855377 91.780823,100.623535 91.780823,97.319870 
	C85.461998,97.632462 79.546547,97.925095 73.468597,98.225761 
	C73.468597,90.947266 73.468597,84.229904 73.468597,77.036591 
	C78.049530,77.036591 82.310608,77.036591 86.688431,77.036591 
	C86.688431,73.331848 86.688431,70.113785 86.688431,66.288620 
	C82.148804,66.288620 77.886314,66.288620 73.518608,66.288620 
	C73.518608,59.809944 73.518608,53.950047 73.518608,47.802532 
	C79.492889,48.113556 85.068932,48.403851 90.740540,48.699120 
	C90.740540,45.035748 90.740540,41.797611 90.740540,38.349838 
	C81.277924,37.482788 72.106247,36.642391 62.712234,35.781624 
	C62.712234,60.884422 62.712234,85.311180 62.712234,110.232208 
	C65.094154,110.089043 67.210800,109.961815 70.239204,109.731850 
M314.394257,106.479942 
	C314.394257,85.735016 314.394257,64.990089 314.394257,44.239429 
	C318.144287,43.674660 321.239441,43.208515 324.461121,42.723320 
	C324.461121,38.484085 324.461121,34.422825 324.461121,30.084740 
	C313.983856,31.546654 303.855835,32.959839 293.681824,34.379440 
	C293.681824,38.426456 293.681824,42.013195 293.681824,45.922535 
	C297.102081,45.626389 300.203156,45.357883 303.788208,45.047474 
	C303.788208,67.831268 303.788208,90.252480 303.788208,113.049644 
	C307.389038,113.518646 310.584778,113.934891 314.394257,114.431068 
	C314.394257,111.721008 314.394257,109.598122 314.394257,106.479942 
M166.872314,94.998955 
	C166.043793,93.590195 164.513016,92.190186 164.495331,90.771324 
	C164.316971,76.460960 164.386398,62.147503 164.386200,47.834915 
	C164.386169,45.910969 164.386200,43.987022 164.386200,41.809418 
	C160.584702,41.809418 157.487335,41.809418 154.214401,41.809418 
	C154.214401,62.743355 154.214401,83.556633 154.214401,104.139671 
	C163.386948,104.139671 172.115814,104.139671 180.914948,104.139671 
	C180.914948,100.923088 180.914948,98.176247 180.914948,95.002762 
	C176.388367,95.002762 172.098343,95.002762 166.872314,94.998955 
M189.101440,47.704002 
	C189.101440,66.580185 189.101440,85.456367 189.101440,104.568710 
	C193.113373,104.568710 196.350632,104.568710 199.702179,104.568710 
	C199.702179,83.420799 199.702179,62.551659 199.702179,41.157845 
	C196.034943,41.333618 192.673630,41.494732 189.101456,41.665947 
	C189.101456,43.781578 189.101456,45.269753 189.101440,47.704002 
M142.303818,120.593254 
	C141.300125,120.883324 140.296432,121.173386 139.032669,121.538612 
	C138.607620,121.237289 137.613129,120.532280 136.230896,119.552406 
	C136.230896,123.045815 136.230896,125.910912 136.230896,128.776016 
	C136.393234,128.762848 136.555557,128.749680 136.717896,128.736526 
	C137.031387,127.618500 137.344879,126.500481 137.759949,125.020233 
	C139.130295,126.810478 140.125931,128.111191 141.121552,129.411896 
	C141.528122,129.303360 141.934708,129.194839 142.341278,129.086304 
	C142.341278,126.513115 142.341278,123.939926 142.303818,120.593254 
M177.593994,129.165314 
	C176.726990,128.161285 175.859970,127.157257 175.946869,127.257881 
	C175.946869,124.606392 175.946869,123.042686 175.946869,121.162964 
	C176.123840,121.059105 177.040436,120.521187 179.232483,119.234772 
	C176.041183,119.234772 174.455460,119.234772 172.652573,119.234772 
	C172.652573,122.663368 172.652573,125.856277 172.652573,129.394791 
	C174.290161,129.394791 175.584381,129.394791 177.593994,129.165314 
M148.062347,127.422714 
	C148.435165,127.961868 148.851288,128.987701 149.173584,128.959030 
	C150.908539,128.804642 152.620193,128.388321 154.807587,127.973740 
	C154.807587,128.383408 154.978851,127.691589 154.778488,127.133110 
	C153.815536,124.449219 152.752213,121.801353 151.724548,119.140701 
	C150.556808,121.642250 149.389069,124.143799 148.062347,127.422714 
M125.782829,127.451080 
	C127.090813,127.951828 128.398804,128.452576 130.487076,129.252060 
	C129.387207,125.317307 128.479446,122.069832 127.571686,118.822357 
	C126.870773,118.835289 126.169868,118.848213 125.468956,118.861145 
	C124.601784,122.182991 123.734612,125.504837 122.867432,128.826691 
	C123.248619,128.981583 123.629814,129.136490 124.011002,129.291382 
	C124.412392,128.862152 124.813789,128.432922 125.782829,127.451080 
M215.909149,119.245514 
	C215.441238,120.289337 214.973312,121.333160 214.547089,122.283966 
	C213.439392,121.107834 212.366165,119.968300 210.679321,118.177223 
	C210.679321,122.672173 210.679321,125.893082 210.679321,129.113983 
	C210.989792,129.134125 211.300278,129.154266 211.610748,129.174408 
	C211.898575,127.842056 212.186401,126.509697 212.474533,125.176735 
	C216.971817,126.453461 217.316025,125.976952 215.909149,119.245514 
M165.755173,119.950768 
	C164.148651,119.920547 161.200012,119.622841 161.144424,119.901733 
	C160.621918,122.523384 160.176270,125.322983 160.664459,127.889320 
	C160.821136,128.713013 163.820923,128.995865 167.096161,130.018127 
	C165.911530,127.031181 165.327744,125.559212 164.743958,124.087242 
	C164.047653,125.037460 163.351334,125.987671 162.534058,127.102966 
	C162.534058,124.917091 162.534058,123.057007 162.534058,122.393524 
	C164.226151,121.508583 165.176086,121.011772 165.755173,119.950768 
M109.937126,128.680649 
	C110.066765,127.582260 110.196404,126.483879 110.320786,125.430023 
	C111.782646,126.053886 113.178078,126.649399 114.573509,127.244911 
	C114.059647,127.758904 113.545792,128.272903 113.031929,128.786896 
	C111.527359,125.707123 113.778427,121.046768 109.897270,118.967201 
	C109.259926,119.119705 108.622581,119.272209 107.985245,119.424713 
	C108.414452,122.642296 108.843658,125.859886 109.937126,128.680649 
M226.866959,127.135139 
	C227.263367,124.547348 227.659775,121.959557 228.037613,119.493019 
	C226.562866,119.493019 224.607941,119.493019 223.599091,119.493019 
	C223.991562,122.183815 224.218658,124.546677 224.759552,126.835365 
	C224.881989,127.353432 226.094864,127.613777 226.866959,127.135139 
M203.005142,127.735573 
	C197.887192,126.166420 203.380264,125.234230 203.241043,123.953026 
	C202.452667,123.309242 201.678223,122.676826 200.619141,121.811981 
	C202.084641,121.132767 203.084320,120.669449 204.084000,120.206131 
	C204.022293,119.950287 203.960587,119.694435 203.898895,119.438591 
	C202.394852,119.438591 200.890808,119.438591 199.159943,119.438591 
	C199.159943,122.635216 199.159943,125.736267 199.159943,129.766510 
	C200.945724,129.115112 202.345367,128.604568 203.005142,127.735573 
z"/>
<path fill="#FFFCFC" opacity="1.000000" stroke="none" 
	d="
M31.479305,80.632477 
	C30.826778,85.870262 30.506336,90.944267 30.322796,96.023216 
	C30.208605,99.183144 30.301588,102.350555 30.301579,105.514603 
	C30.301552,115.048347 30.301550,115.048347 20.077122,115.793724 
	C20.077122,87.379967 20.077122,58.987057 20.077122,29.923712 
	C26.739445,31.084301 33.319710,31.774786 39.638046,33.452000 
	C46.788483,35.350094 50.696308,40.926003 51.714077,47.954575 
	C53.149036,57.864235 54.212822,67.880035 46.330631,76.224281 
	C45.478226,77.126656 45.936832,79.659790 46.345818,81.296959 
	C48.796867,91.108551 51.411446,100.879295 54.128006,111.263069 
	C50.507092,111.752899 47.154594,112.206421 43.295639,112.728462 
	C41.074726,103.006958 38.838840,93.504799 36.764938,83.967422 
	C36.146702,81.124306 35.160404,79.321815 31.479305,80.632477 
M41.981556,57.396973 
	C41.820583,46.024231 39.521206,43.281574 30.607100,44.016365 
	C30.607100,52.188244 30.607100,60.368458 30.607100,68.506325 
	C39.268570,69.469284 41.313297,67.565056 41.981556,57.396973 
z"/>
<path fill="#FFFEFE" opacity="1.000000" stroke="none" 
	d="
M276.793304,107.744507 
	C276.783051,97.471779 276.783051,87.673004 276.783051,77.485382 
	C272.989685,77.485382 269.573639,77.485382 265.436676,77.485382 
	C265.436676,87.631943 265.436676,97.992424 265.436676,108.680405 
	C261.618591,108.356277 258.535034,108.094498 255.119995,107.804581 
	C255.119995,84.633308 255.119995,61.605801 255.119995,38.266232 
	C258.410126,37.996994 261.508392,37.743454 265.141907,37.446117 
	C265.141907,46.964745 265.141907,56.219540 265.141907,65.855820 
	C269.176514,65.855820 272.703400,65.855820 276.620514,65.855820 
	C276.620514,56.044209 276.620514,46.435692 276.620514,36.402546 
	C280.150452,35.919472 283.364532,35.479618 286.955566,34.988186 
	C286.955566,60.348618 286.955566,85.403214 286.955566,111.776230 
	C283.283997,110.489525 280.043762,109.353989 276.793304,107.744507 
z"/>
<path fill="#FFFDFD" opacity="1.000000" stroke="none" 
	d="
M100.701843,44.150311 
	C100.809601,42.232586 100.917259,40.796761 101.046059,39.078922 
	C107.391174,39.542545 113.388374,39.616196 119.264153,40.498524 
	C127.365891,41.715118 132.468277,46.701923 132.838013,54.775860 
	C133.392822,66.891548 133.406250,79.068840 132.867554,91.185158 
	C132.494598,99.573883 126.845688,104.801064 118.414185,105.781937 
	C112.814240,106.433403 107.153557,106.562866 100.701752,106.978737 
	C100.701752,86.061722 100.701752,65.346970 100.701843,44.150311 
M122.810646,79.463989 
	C122.803345,72.648422 122.914192,65.830139 122.758118,59.017982 
	C122.573059,50.940788 120.153259,48.936722 111.628258,49.604767 
	C111.628258,65.251907 111.628258,80.917427 111.628258,96.562408 
	C120.346466,97.006729 122.499893,95.094963 122.779739,86.930641 
	C122.853737,84.771942 122.803711,82.608994 122.810646,79.463989 
z"/>
<path fill="#FEFBFB" opacity="1.000000" stroke="none" 
	d="
M229.390350,49.496296 
	C224.976257,48.528603 222.751328,50.606956 222.686279,54.330677 
	C222.468460,66.800728 222.475128,79.277374 222.612411,91.749107 
	C222.647446,94.931511 224.656967,97.629272 227.986160,96.711449 
	C229.960571,96.167130 232.171814,93.627365 232.749512,91.558441 
	C233.561386,88.650887 232.954712,85.347237 232.954712,81.964012 
	C230.824280,81.743469 228.904068,81.544693 226.649750,81.311333 
	C226.649750,78.571518 226.649750,76.008980 226.649750,73.019287 
	C232.193771,73.019287 237.755829,73.019287 243.648865,73.019287 
	C243.648865,84.121346 243.648865,95.360161 243.648865,108.169632 
	C240.642639,106.216309 238.382980,104.748070 235.736557,103.028534 
	C231.795593,107.286964 226.127487,108.230881 219.967804,105.137352 
	C213.917847,102.098930 211.826797,96.645012 211.794022,90.254272 
	C211.734283,78.603333 211.656998,66.949753 211.839996,55.301239 
	C211.966370,47.256378 216.357101,41.734444 223.524048,39.873615 
	C234.094452,37.129112 242.112671,42.745731 243.102295,53.682560 
	C243.308136,55.957569 243.132187,58.267128 243.132187,60.896713 
	C239.843216,60.896713 236.764359,60.896713 234.421783,60.896713 
	C232.781662,56.960083 231.262360,53.313427 229.390350,49.496296 
z"/>
<path fill="#FEF6F6" opacity="1.000000" stroke="none" 
	d="
M69.783325,109.783218 
	C67.210800,109.961815 65.094154,110.089043 62.712234,110.232208 
	C62.712234,85.311180 62.712234,60.884422 62.712234,35.781624 
	C72.106247,36.642391 81.277924,37.482788 90.740540,38.349838 
	C90.740540,41.797611 90.740540,45.035748 90.740540,48.699120 
	C85.068932,48.403851 79.492889,48.113556 73.518608,47.802532 
	C73.518608,53.950047 73.518608,59.809944 73.518608,66.288620 
	C77.886314,66.288620 82.148804,66.288620 86.688431,66.288620 
	C86.688431,70.113785 86.688431,73.331848 86.688431,77.036591 
	C82.310608,77.036591 78.049530,77.036591 73.468597,77.036591 
	C73.468597,84.229904 73.468597,90.947266 73.468597,98.225761 
	C79.546547,97.925095 85.461998,97.632462 91.780823,97.319870 
	C91.780823,100.623535 91.780823,103.855377 91.780823,107.540565 
	C84.698601,108.260994 77.468903,108.996422 69.783325,109.783218 
z"/>
<path fill="#FFFCFC" opacity="1.000000" stroke="none" 
	d="
M314.394257,106.977585 
	C314.394257,109.598122 314.394257,111.721008 314.394257,114.431068 
	C310.584778,113.934891 307.389038,113.518646 303.788208,113.049644 
	C303.788208,90.252480 303.788208,67.831268 303.788208,45.047474 
	C300.203156,45.357883 297.102081,45.626389 293.681824,45.922535 
	C293.681824,42.013195 293.681824,38.426456 293.681824,34.379440 
	C303.855835,32.959839 313.983856,31.546654 324.461121,30.084740 
	C324.461121,34.422825 324.461121,38.484085 324.461121,42.723320 
	C321.239441,43.208515 318.144287,43.674660 314.394257,44.239429 
	C314.394257,64.990089 314.394257,85.735016 314.394257,106.977585 
z"/>
<path fill="#FFFEFE" opacity="1.000000" stroke="none" 
	d="
M167.340317,95.000854 
	C172.098343,95.002762 176.388367,95.002762 180.914948,95.002762 
	C180.914948,98.176247 180.914948,100.923088 180.914948,104.139671 
	C172.115814,104.139671 163.386948,104.139671 154.214401,104.139671 
	C154.214401,83.556633 154.214401,62.743355 154.214401,41.809418 
	C157.487335,41.809418 160.584702,41.809418 164.386200,41.809418 
	C164.386200,43.987022 164.386169,45.910969 164.386200,47.834915 
	C164.386398,62.147503 164.316971,76.460960 164.495331,90.771324 
	C164.513016,92.190186 166.043793,93.590195 167.340317,95.000854 
z"/>
<path fill="#FEF8F8" opacity="1.000000" stroke="none" 
	d="
M189.101440,47.230965 
	C189.101456,45.269753 189.101456,43.781578 189.101456,41.665947 
	C192.673630,41.494732 196.034943,41.333618 199.702179,41.157845 
	C199.702179,62.551659 199.702179,83.420799 199.702179,104.568710 
	C196.350632,104.568710 193.113373,104.568710 189.101440,104.568710 
	C189.101440,85.456367 189.101440,66.580185 189.101440,47.230965 
z"/>
<path fill="#FDEFF0" opacity="1.000000" stroke="none" 
	d="
M142.322540,120.979996 
	C142.341278,123.939926 142.341278,126.513115 142.341278,129.086304 
	C141.934708,129.194839 141.528122,129.303360 141.121552,129.411896 
	C140.125931,128.111191 139.130295,126.810478 137.759949,125.020233 
	C137.344879,126.500481 137.031387,127.618500 136.717896,128.736526 
	C136.555557,128.749680 136.393234,128.762848 136.230896,128.776016 
	C136.230896,125.910912 136.230896,123.045815 136.230896,119.552406 
	C137.613129,120.532280 138.607620,121.237289 139.032669,121.538612 
	C140.296432,121.173386 141.300125,120.883324 142.322540,120.979996 
z"/>
<path fill="#F8D2D3" opacity="1.000000" stroke="none" 
	d="
M177.236298,129.280060 
	C175.584381,129.394791 174.290161,129.394791 172.652573,129.394791 
	C172.652573,125.856277 172.652573,122.663368 172.652573,119.234772 
	C174.455460,119.234772 176.041183,119.234772 179.232483,119.234772 
	C177.040436,120.521187 176.123840,121.059105 175.946869,121.162964 
	C175.946869,123.042686 175.946869,124.606392 175.946869,127.257881 
	C175.859970,127.157257 176.726990,128.161285 177.236298,129.280060 
z"/>
<path fill="#FBE5E5" opacity="1.000000" stroke="none" 
	d="
M148.141846,127.034027 
	C149.389069,124.143799 150.556808,121.642250 151.724548,119.140701 
	C152.752213,121.801353 153.815536,124.449219 154.778488,127.133110 
	C154.978851,127.691589 154.807587,128.383408 154.807587,127.973740 
	C152.620193,128.388321 150.908539,128.804642 149.173584,128.959030 
	C148.851288,128.987701 148.435165,127.961868 148.141846,127.034027 
z"/>
<path fill="#FCE9E9" opacity="1.000000" stroke="none" 
	d="
M125.499008,127.727386 
	C124.813789,128.432922 124.412392,128.862152 124.011002,129.291382 
	C123.629814,129.136490 123.248619,128.981583 122.867432,128.826691 
	C123.734612,125.504837 124.601784,122.182991 125.468956,118.861145 
	C126.169868,118.848213 126.870773,118.835289 127.571686,118.822357 
	C128.479446,122.069832 129.387207,125.317307 130.487076,129.252060 
	C128.398804,128.452576 127.090813,127.951828 125.499008,127.727386 
z"/>
<path fill="#F9D9DA" opacity="1.000000" stroke="none" 
	d="
M216.290573,119.305664 
	C217.316025,125.976952 216.971817,126.453461 212.474365,125.177040 
	C212.186401,126.509697 211.898575,127.842056 211.610748,129.174408 
	C211.300278,129.154266 210.989792,129.134125 210.679321,129.113983 
	C210.679321,125.893082 210.679321,122.672173 210.679321,118.177223 
	C212.366165,119.968300 213.439392,121.107834 214.547089,122.283966 
	C214.973312,121.333160 215.441238,120.289337 216.290573,119.305664 
z"/>
<path fill="#FDF3F3" opacity="1.000000" stroke="none" 
	d="
M165.940613,120.232864 
	C165.176086,121.011772 164.226151,121.508583 162.534058,122.393524 
	C162.534058,123.057007 162.534058,124.917091 162.534058,127.102966 
	C163.351334,125.987671 164.047653,125.037460 164.743958,124.087242 
	C165.327744,125.559212 165.911530,127.031181 167.096161,130.018127 
	C163.820923,128.995865 160.821136,128.713013 160.664459,127.889320 
	C160.176270,125.322983 160.621918,122.523384 161.144424,119.901733 
	C161.200012,119.622841 164.148651,119.920547 165.940613,120.232864 
z"/>
<path fill="#F9D9DA" opacity="1.000000" stroke="none" 
	d="
M109.604996,128.879059 
	C108.843658,125.859886 108.414452,122.642296 107.985245,119.424713 
	C108.622581,119.272209 109.259926,119.119705 109.897270,118.967201 
	C113.778427,121.046768 111.527359,125.707123 113.031929,128.786896 
	C113.545792,128.272903 114.059647,127.758904 114.573509,127.244911 
	C113.178078,126.649399 111.782646,126.053886 110.320786,125.430023 
	C110.196404,126.483879 110.066765,127.582260 109.604996,128.879059 
z"/>
<path fill="#FBE2E2" opacity="1.000000" stroke="none" 
	d="
M187.992798,124.002502 
	C189.140579,122.222733 190.288376,120.442970 191.436157,118.663200 
	C191.835938,118.862511 192.235733,119.061829 192.635513,119.261139 
	C192.635513,122.486931 192.635513,125.712723 192.635513,128.938507 
	C192.350830,128.991318 192.066147,129.044113 191.781479,129.096909 
	C191.423004,128.029663 191.064545,126.962418 190.656097,125.746368 
	C189.989960,126.939232 189.334503,128.112991 188.389236,129.805695 
	C187.749435,128.522552 187.348007,127.717468 187.017944,126.239517 
	C187.390488,125.045265 187.691650,124.523880 187.992798,124.002502 
z"/>
<path fill="#FADCDC" opacity="1.000000" stroke="none" 
	d="
M226.836380,127.563950 
	C226.094864,127.613777 224.881989,127.353432 224.759552,126.835365 
	C224.218658,124.546677 223.991562,122.183815 223.599091,119.493019 
	C224.607941,119.493019 226.562866,119.493019 228.037613,119.493019 
	C227.659775,121.959557 227.263367,124.547348 226.836380,127.563950 
z"/>
<path fill="#FDF1F1" opacity="1.000000" stroke="none" 
	d="
M203.375076,127.914795 
	C202.345367,128.604568 200.945724,129.115112 199.159943,129.766510 
	C199.159943,125.736267 199.159943,122.635216 199.159943,119.438591 
	C200.890808,119.438591 202.394852,119.438591 203.898895,119.438591 
	C203.960587,119.694435 204.022293,119.950287 204.084000,120.206131 
	C203.084320,120.669449 202.084641,121.132767 200.619141,121.811981 
	C201.678223,122.676826 202.452667,123.309242 203.241043,123.953026 
	C203.380264,125.234230 197.887192,126.166420 203.375076,127.914795 
z"/>
<path fill="#F7C9CA" opacity="1.000000" stroke="none" 
	d="
M187.967865,123.655014 
	C187.691650,124.523880 187.390488,125.045265 187.006531,125.864258 
	C186.345383,127.005447 185.767029,127.849022 185.188675,128.692596 
	C184.830078,128.667114 184.471481,128.641617 184.112869,128.616135 
	C184.406357,126.275948 184.699829,123.935760 184.993317,121.595581 
	C185.976532,122.166229 186.959732,122.736877 187.967865,123.655014 
z"/>
<path fill="#E13133" opacity="1.000000" stroke="none" 
	d="
M41.968819,57.843758 
	C41.313297,67.565056 39.268570,69.469284 30.607100,68.506325 
	C30.607100,60.368458 30.607100,52.188244 30.607100,44.016365 
	C39.521206,43.281574 41.820583,46.024231 41.968819,57.843758 
z"/>
<path fill="#E13335" opacity="1.000000" stroke="none" 
	d="
M122.810638,79.955994 
	C122.803711,82.608994 122.853737,84.771942 122.779739,86.930641 
	C122.499893,95.094963 120.346466,97.006729 111.628258,96.562408 
	C111.628258,80.917427 111.628258,65.251907 111.628258,49.604767 
	C120.153259,48.936722 122.573059,50.940788 122.758118,59.017982 
	C122.914192,65.830139 122.803345,72.648422 122.810638,79.955994 
z"/>
</svg>